<?xml version="1.0" encoding="UTF-8" standalone="no"?>
<svg
   viewBox="0 0 108 108"
   id="vector"
   version="1.1"
   width="108"
   height="108"
   xmlns:xlink="http://www.w3.org/1999/xlink"
   xmlns="http://www.w3.org/2000/svg"
   xmlns:svg="http://www.w3.org/2000/svg">
  <defs
     id="defs1">
    <linearGradient
       id="swatch15">
      <stop
         style="stop-color:#000000;stop-opacity:0.26666668;"
         offset="0"
         id="stop15" />
      <stop
         style="stop-color:#000000;stop-opacity:0;"
         offset="1"
         id="stop16" />
    </linearGradient>
    <linearGradient
       xlink:href="#swatch15"
       id="linearGradient16"
       gradientUnits="userSpaceOnUse"
       x1="33.279705"
       y1="29.47093"
       x2="107.75818"
       y2="108.14276" />
  </defs>
  <path
     id="path2"
     style="fill:url(#linearGradient16);fill-opacity:1"
     d="m 54.839844,29.296875 -7.03125,17.443359 12.341797,12.5625 -27.029297,12.962891 35.892578,35.892575 h 38.874998 l -0.0234,-0.2832 0.13086,0.13281 V 81.585938 L 95.474609,69.064453 58.507812,32.097656 l -1.835937,-1.835937 0.09766,0.171875 -0.316406,-0.316406 0.132813,0.160156 -0.421876,-0.421875 0.429688,1.195312 z" />
  <path
     id="path_3"
     d="m 54,80.1 c 2.871,0 5.22,-2.349 5.22,-5.22 H 48.78 c 0,2.871 2.3229,5.22 5.22,5.22 z M 69.66,64.44 V 51.39 c 0,-8.0127 -4.2804,-14.7204 -11.745,-16.4952 V 33.12 c 0,-2.1663 -1.7487,-3.915 -3.915,-3.915 -2.1663,0 -3.915,1.7487 -3.915,3.915 v 1.7748 C 42.5943,36.6696 38.34,43.3512 38.34,51.39 v 13.05 l -5.22,5.22 v 2.61 h 41.76 v -2.61 z"
     fill="#ffffff"
     style="stroke-width:2.61" />
</svg>
